<?xml version="1.0" encoding="utf-8"?>
<!-- Generator: Adobe Illustrator 25.1.0, SVG Export Plug-In . SVG Version: 6.00 Build 0)  -->
<svg version="1.1" id="Layer_1" xmlns="http://www.w3.org/2000/svg" xmlns:xlink="http://www.w3.org/1999/xlink" x="0px" y="0px"
	 viewBox="0 0 1795.8 364.7" style="enable-background:new 0 0 1795.8 364.7;" xml:space="preserve">
<style type="text/css">
	.st0{fill:#FFFFFF;}
	.st1{fill:#8FDF40;}
</style>
<image style="display:none;overflow:visible;enable-background:new    ;" width="1920" height="1080" xlink:href="6F6B3E37.png"  transform="matrix(1 0 0 1 -62.0082 -350.5882)">
</image>
<g>
	<g>
		<path class="st0" d="M31,56.5c0-12.8,9.6-22.2,22.2-23.7c18.5-2.2,40.6-2.4,66.5-2.4c45.7,0,79,8,100.2,27.1
			c19.6,17,36.6,44.6,36.6,76.5c0,32.4-11.9,57.5-29.9,76c-24.4,26-55.1,33.3-100.3,33.3c-13.8,0-29.9-0.5-29.9-0.5v107.4l-67,1.4
			L31,56.5z M92.7,185.8c11,0.2,35.9,1,51.3,1c8.3,0.7,48-10.9,47.1-52.8c-2.1-43.2-48.5-47.5-62.7-47c-20.2,0-26.9,0.2-34.7,0.5
			L92.7,185.8z"/>
	</g>
	<g>
		<path class="st0" d="M516.3,352.2l-53.1-63l-28.5-34.5l-30.2-35.2l-4.8-0.5L399,351.7l-63.9,0.7v-288c0-16.8,12.2-30.8,29-31.1
			c24.4-0.5,56.5-1.2,67-1.2c27.9,0,57.7,2.9,75.5,10.1c31.8,13,51.4,42.6,51.4,80.1c0,28.4-10.6,59.5-28.9,73.4
			c-9.1,7.2-35,16-51.3,18.9c-3.6,4.5,2.6,10.6,10.3,17.8c6.7,7.2,27.1,32.1,27.1,32.1l74.4,87.2L516.3,352.2z M445.8,173.2
			c15.9,0,21.1-3.2,21.1-3.2c16.3-8.7,24.2-16.2,24.2-38.3c0-23.1-22.3-39.9-39.2-39.7h-23.5l-27.3,0.2l-0.2,80.5L445.8,173.2z"/>
	</g>
	<path class="st0" d="M721.3,352.4h-65l0.9-287.6c0-20,14.5-36.3,32.5-36.3l0,0c18,0,32.5,16.2,32.5,36.3L721.3,352.4z"/>
	<path class="st0" d="M1766.5,289.9h-113.6l0.7-224.4c0-20-14.6-36.1-32.5-36.1l0,0c-17.9,0-32.5,16.2-32.5,36.1l-0.8,250.8
		c-0.1,19.7,15.9,35.7,35.7,35.7h29.2v-0.1h113.8L1766.5,289.9L1766.5,289.9z"/>
	<path class="st1" d="M1382,96.9l82.7,254.7l69.4-1.4L1433.5,81.6c-6.4-32.7-26.6-55.6-53.3-55.2l0,0c-29.9-0.8-44.7,27.4-52.2,55.9
		v0.1l-100.5,268.4l69.4,1.4l82.7-254.7L1382,96.9"/>
	<path class="st0" d="M788,350.7c0,0,41.8-249,48.5-281.4c6.7-32.3,27.1-39.9,40.9-39.9c13.8,0,39.9,3.8,51.3,46.6
		s45.6,154.9,47,159.7c1.4,4.8,7.1,5.7,8.6-6.4c0,0,36.7-124.2,44.9-156.2c8.2-32.1,20-42.4,46.3-43.1c26.4-0.7,41.7,13.5,44.2,39.2
		c2.5,25.7,49.2,282.6,49.2,282.6H1099c0,0-27.4-198.2-28.5-207.1c-1.1-8.9-3.9-7.1-5.7,0.4c-1.8,7.5-45.3,154-48.8,171.1
		c-3.6,17.1-12.1,36-37.8,35.6c-25.7-0.4-34.9-8.5-40.6-41c0,0-44.9-159.3-46.7-168.2c-1.8-8.9-6.1,0-7.5,7.5
		s-28.2,201.8-28.2,201.8L788,350.7z"/>
</g>
</svg>
